<?xml version="1.0" encoding="UTF-8"?>
<svg id="Layer_1" xmlns="http://www.w3.org/2000/svg" version="1.1" viewBox="0 0 534 534">
  <!-- Generator: Adobe Illustrator 30.1.0, SVG Export Plug-In . SVG Version: 2.1.1 Build 136)  -->
  <path d="M470.1,270c10.3,42.1,5.9,92.8-20.4,128.7s-66.1,48.1-107.5,40.1c-22.7-4.4-40.6-17.1-54.2-36.4l-.4,31.8h-38.4s0-341.9,0-341.9h38.5c0-.1.2,128.6.2,128.6,18.5-24.1,43.8-36.4,73.2-37.3s70.4,14.9,90.9,45.4c8.5,12.5,14.5,25.9,18.2,40.9ZM360.5,407.3c36.3.4,59.7-24.7,69-57,7.4-25.9,7.2-53.2-.9-78.9-10.2-32.5-35-55.6-70.6-54-36.4,1.6-59,28.2-66.5,62.1-5,22.4-4.9,45.4.5,67.7,8,33.6,31.4,59.7,68.6,60.1Z"/>
  <polygon points="228 434 182.3 434.2 96 303.1 58.5 337.1 58.4 434.2 20 434.2 20 92.3 58.5 92.2 58.5 296.4 171.8 190.4 218 190.5 122.1 278.9 228 434"/>
  <rect x="475" y="393.5" width="38.5" height="40.7"/>
</svg>